<?xml version="1.0" encoding="utf-8"?>
<!-- Generator: Adobe Illustrator 27.5.0, SVG Export Plug-In . SVG Version: 6.00 Build 0)  -->
<svg version="1.1" id="Capa_1" xmlns="http://www.w3.org/2000/svg" xmlns:xlink="http://www.w3.org/1999/xlink" x="0px" y="0px"
	 viewBox="0 0 2506 1796" style="enable-background:new 0 0 2506 1796;" xml:space="preserve">
<g>
	<path style="fill:#F8F6E3;" d="M2367.904,1256.111c-1.728-16.674-19.878-22.232-19.878-22.232l-26.76-1.661
		c-0.299-0.794-0.621-1.64-0.943-2.482c-0.046-0.119-0.088-0.232-0.134-0.351c-0.298-0.78-0.615-1.593-0.933-2.408
		c-0.138-0.354-0.272-0.7-0.414-1.06c-0.309-0.789-0.633-1.6-0.96-2.417c-0.153-0.381-0.303-0.759-0.46-1.146
		c-0.333-0.826-0.675-1.665-1.023-2.515c-0.176-0.426-0.353-0.855-0.532-1.287c-0.354-0.853-0.712-1.713-1.082-2.585
		c-0.177-0.418-0.358-0.84-0.538-1.262c-0.393-0.919-0.787-1.842-1.196-2.779c-0.144-0.328-0.292-0.662-0.437-0.991
		c-0.449-1.024-0.901-2.049-1.37-3.09c-0.006,0-0.011,0.001-0.015,0.001c-12.046-26.766-30.171-58.519-50.498-64.743
		c-36.301-11.116-55.316-20.51-55.316-20.51c20.744,5.427,55.316,0,55.316,0l-15.557-46.183
		c-39.574,3.927-128.159-5.827-236.229-22.469l105.831-123.883c-17.54,10.324-87.812,20.651-222.658,14.785l163.259-150.021
		c-155.619,61.136-224.849,36.126-480.694,36.126c-251.206,0-313.494,195.278-322.439,229.291c-0.337-0.599-0.694-1.219-1.1-1.911
		c3.263-31.158,4.602-159.846-179.497-241.275C782.641,689.223,675.259,611.414,622.149,516.931l90.768,327.698
		c-85.051-7.368-227.899-32.387-307.003-116.501l115.533,250.101l204.735,36.038c-200.186,37.672-399.928,68.643-465.429,62.143
		l-15.558,46.183c0,0,34.573,5.427,55.315,0c0,0-19.014,9.394-55.315,20.51c-16.172,4.952-30.964,26.087-42.405,47.998l-0.004,0.009
		c-0.881,1.687-1.741,3.379-2.581,5.069c-0.02,0.04-0.039,0.079-0.059,0.119c-0.823,1.658-1.627,3.314-2.41,4.961
		c-0.025,0.05-0.048,0.1-0.072,0.15c-5.446,11.474-9.887,22.499-13.005,30.811l-26.758,1.661c0,0-18.15,5.558-19.879,22.232
		c-1.728,16.673,23.417,19.252,33.036,18.707l917.911-53.443c0,0,47.982,57.439,165.945,57.437
		c105.276-0.001,151.192-47.255,162.044-57.437l917.911,53.443C2344.487,1275.364,2369.632,1272.784,2367.904,1256.111z"/>
	<path style="fill:#DBD8C7;" d="M2367.904,1256.111c-1.728-16.674-19.878-22.232-19.878-22.232l-26.76-1.661h-0.004
		c-0.301-0.802-0.614-1.631-0.939-2.482c-0.046-0.119-0.088-0.232-0.134-0.351c-0.298-0.78-0.615-1.593-0.933-2.408
		c-0.138-0.354-0.272-0.7-0.414-1.06c-0.309-0.789-0.633-1.6-0.96-2.417c-0.153-0.381-0.303-0.759-0.46-1.146
		c-0.333-0.826-0.675-1.665-1.023-2.515c-0.176-0.426-0.353-0.855-0.532-1.287c-0.354-0.853-0.712-1.713-1.082-2.585
		c-0.177-0.418-0.358-0.84-0.538-1.262c-0.393-0.919-0.787-1.842-1.196-2.779c-0.144-0.328-0.292-0.662-0.437-0.991
		c-0.449-1.024-0.901-2.049-1.37-3.09c-51.965,5.37-105.309,2.646-156.527-1.521c-81.996-6.67-163.197-20.172-244.821-30.065
		c-76.366-9.256-153.346-12.094-229.65-22.234c-36.276-4.821-72.346-10.701-107.737-20.127
		c-36.174-9.633-71.828-21.255-108.398-29.369c-38.427-8.527-76.173-10.735-115.389-7.72c-31.912,2.454-64.126,13.315-96.263,11.563
		c-2.114-0.104-4.226-0.193-6.339-0.424c-31.026-3.394-60.317-16.066-91.142-20.714c-36.571-5.513-74.417-2.857-110.796,2.813
		c-73.693,11.488-146.674,30.136-219.596,45.709c-75.885,16.206-152.076,31.268-229.168,40.504
		c-70.573,8.455-141.769,16.222-212.658,21.447c-45.123,3.325-91.093,4.763-136.283,0.053c-14.664-1.528-29.246-3.685-43.688-6.66
		l-0.004,0.009c-0.881,1.687-1.741,3.379-2.581,5.069c-0.02,0.04-0.039,0.079-0.059,0.119c-0.823,1.658-1.627,3.314-2.41,4.961
		c-0.025,0.05-0.048,0.1-0.072,0.15c-5.453,11.488-9.875,22.493-12.996,30.811h-0.009l-26.758,1.661c0,0-18.15,5.558-19.879,22.232
		c-1.728,16.673,23.417,19.252,33.036,18.707l917.911-53.443c0,0,47.982,57.439,165.945,57.437
		c105.276-0.001,151.192-47.255,162.044-57.437l917.911,53.443C2344.487,1275.364,2369.632,1272.784,2367.904,1256.111z"/>
	<path style="fill:#E9A02C;" d="M2367.904,1256.111c-1.728-16.674-19.878-22.232-19.878-22.232l-26.76-1.661h-0.004l-928.504-57.621
		c-2.106,2.532-4.342,4.95-6.669,7.286c-13.292-21.37-49.376-61.22-133.126-59.181c-83.962-2.043-120.015,38.014-133.224,59.344
		c-2.357-2.409-4.595-4.871-6.569-7.448l-928.501,57.621h-0.009l-26.758,1.661c0,0-18.15,5.558-19.879,22.232
		c-1.728,16.673,23.417,19.252,33.036,18.707l917.911-53.443c0,0,47.982,57.439,165.945,57.437
		c105.276-0.001,151.192-47.255,162.044-57.437l917.911,53.443C2344.487,1275.364,2369.632,1272.784,2367.904,1256.111z"/>
	<path style="fill:#7C7974;" d="M1147.933,1202.674c55.508,29.88,147.028,34.394,207.82,1.542
		C1297.239,1131.636,1182.525,1148.944,1147.933,1202.674z"/>
	<path style="fill:#56346B;" d="M2367.904,1256.111c-1.728-16.674-19.878-22.232-19.878-22.232l-26.76-1.661h-0.004l-928.504-57.621
		c-2.106,2.532-4.342,4.95-6.669,7.286c-8.757,8.79-19.009,16.211-30.335,22.333c-60.792,32.852-152.312,28.338-207.82-1.542
		c-10.989-5.915-20.554-12.816-28.195-20.629c-2.357-2.409-4.595-4.871-6.569-7.448l-928.501,57.621h-0.009l-26.758,1.661
		c0,0-18.15,5.558-19.879,22.232c-1.728,16.673,23.417,19.252,33.036,18.707l917.911-53.443c0,0,47.982,57.439,165.945,57.437
		c105.276-0.001,151.192-47.255,162.044-57.437l917.911,53.443C2344.487,1275.364,2369.632,1272.784,2367.904,1256.111z"/>
	<g>
		<path style="fill:#D6CEC4;" d="M1071.646,817.052C782.641,689.223,675.259,611.414,622.149,516.931l90.768,327.698
			c-85.051-7.368-227.899-32.387-307.003-116.501l115.533,250.101l204.735,36.038c85.091-16.012,170.263-33.235,245.241-49.306
			c171.859-36.837,249.613,48.337,274.265,84.763c2.241,3.313,4.063,6.227,5.456,8.604
			C1254.407,1027.169,1255.745,898.481,1071.646,817.052z"/>
		<path style="fill:#D6CEC4;" d="M1892.118,944.842l163.259-150.021c-155.619,61.136-224.849,36.126-480.694,36.126
			c-251.206,0-313.494,195.278-322.439,229.291c0.136,0.241,0.276,0.488,0.401,0.713c0.099,0.179,0.226,0.398,0.318,0.566
			c12.379-22.625,86.208-138.425,281.54-96.557c144.798,31.037,327.609,66.368,474.442,88.98l105.831-123.883
			C2097.236,940.381,2026.964,950.708,1892.118,944.842z"/>
	</g>
	<path style="fill:#BFB5A6;" d="M1360.653,1051.406c33.347-12.968,70.163-18.526,129.681-18.526
		c46.315,0,298.381,42.61,298.381,42.61c-144.614-35.463-168.699-53.726-276.149-68.546
		C1405.115,992.123,1360.653,1051.406,1360.653,1051.406z"/>
	<path style="fill:#BFB5A6;" d="M1764.287,1108.837c-82.672-7.454-125.745-16.673-151.682,0c0,0,350.142,27.789,377.931,31.495
		C1990.536,1140.331,1815.752,1113.477,1764.287,1108.837z"/>
	<path style="fill:#BFB5A6;" d="M1955.337,1164.415c0,0,284.166,28.887,317.4,33.151c-17.272-2.289-194.708-25.882-227.087-33.151
		C2011.609,1156.773,1955.337,1164.415,1955.337,1164.415z"/>
	<path style="fill:#BFB5A6;" d="M1899.758,1081.743c2.779,1.39,200.776,29.178,226.481,31.957c0,0-52.395-20.026-94.483-25.705
		C1977.567,1080.683,1899.758,1081.743,1899.758,1081.743z"/>
	<path style="fill:#BFB5A6;" d="M1030.357,1032.88c59.519,0,96.334,5.558,129.681,18.526c0,0-44.462-59.283-151.913-44.462
		c-107.451,14.821-131.534,33.084-276.148,68.546C731.977,1075.49,984.041,1032.88,1030.357,1032.88z"/>
	<path style="fill:#BFB5A6;" d="M756.402,1108.837c-51.465,4.641-226.247,31.495-226.247,31.495
		c27.789-3.705,377.929-31.495,377.929-31.495C882.149,1092.164,839.075,1101.382,756.402,1108.837z"/>
	<path style="fill:#BFB5A6;" d="M475.04,1164.415c-32.379,7.268-209.813,30.862-227.085,33.151
		c33.233-4.264,317.399-33.151,317.399-33.151S509.081,1156.773,475.04,1164.415z"/>
	<path style="fill:#BFB5A6;" d="M488.934,1087.995c-42.088,5.679-94.483,25.705-94.483,25.705
		c25.705-2.779,223.701-30.568,226.48-31.957C620.931,1081.743,543.122,1080.683,488.934,1087.995z"/>
	<path style="fill:#BFB5A6;" d="M782.017,847.62c362.251,4.638,445.896,153.07,463.671,202.103c2.241,3.313,4.063,6.227,5.456,8.604
		c3.263-31.158,4.602-159.846-179.497-241.275C782.641,689.223,675.259,611.414,622.149,516.931l90.768,327.698
		C754.31,848.214,782.017,847.62,782.017,847.62z"/>
	<path style="fill:#BFB5A6;" d="M1624.647,919.872c108.1,14.35,196.682,21.891,267.471,24.971l163.259-150.021
		c-155.619,61.136-224.849,36.126-480.694,36.126c-251.206,0-313.494,195.278-322.439,229.291c0.136,0.241,0.276,0.488,0.401,0.713
		C1263.963,1033.149,1339.179,881.977,1624.647,919.872z"/>
</g>
</svg>
